<svg width="104" height="19" viewBox="0 0 104 19" fill="none" xmlns="http://www.w3.org/2000/svg">
<path d="M14.4166 2.94548C12.6166 1.52948 10.6486 0.953476 8.1286 0.953476C4.5766 0.953476 1.0966 2.48948 1.0966 6.04148C1.0966 10.2175 4.2646 11.1535 7.9366 11.4895C9.7846 11.6575 10.7446 12.1855 10.7446 13.0255C10.7446 13.9615 9.6646 14.5135 8.1046 14.5135C6.6886 14.5135 4.8406 14.2255 3.1846 12.6175L0.568602 15.6175C2.8966 18.0655 5.0566 18.5935 8.0806 18.5695C11.8486 18.5455 15.4486 16.9135 15.4486 13.0975C15.4486 9.23348 11.9686 7.88948 8.6326 7.52948C6.9766 7.36148 5.8486 7.19348 5.8486 6.04148C5.8486 5.15348 6.9766 4.79348 8.1286 4.79348C9.5926 4.79348 10.9126 5.08148 12.0646 5.94548L14.4166 2.94548ZM18.142 3.35348V6.30548H16.246V9.68948H18.142V13.5775C18.07 17.2975 20.182 18.3775 22.534 18.3775C23.758 18.3775 24.934 18.1615 25.942 17.5855L24.982 14.3215C24.622 14.5615 24.118 14.7295 23.686 14.7295C23.014 14.7295 22.534 14.4175 22.51 13.5775V9.68948H25.198V6.30548H22.534V2.87348L18.142 3.35348ZM33.4717 5.96948C30.0397 5.96948 26.7037 7.79348 26.7037 12.1855C26.7037 16.5055 30.0637 18.3775 33.4717 18.3775C36.8077 18.3775 40.2397 16.5055 40.2397 12.1855C40.2397 7.86548 36.9757 5.96948 33.4717 5.96948ZM33.4717 14.7535C31.9117 14.7535 31.0237 13.5535 31.0237 12.1855C31.0237 10.8175 31.9117 9.59348 33.4717 9.59348C35.0317 9.59348 35.9197 10.8175 35.9197 12.1855C35.9197 13.6255 34.9597 14.7535 33.4717 14.7535ZM42.1876 6.23348V18.0895H46.6036V11.9215C46.6036 10.3615 47.5396 9.68948 48.6436 9.68948C49.3876 9.68948 49.9156 9.83348 50.6356 10.4095L52.4116 7.21748C51.6436 6.40148 50.4916 5.94548 49.2916 5.94548C48.1396 5.94548 47.0356 6.42548 46.4116 7.52948L46.1476 6.23348H42.1876ZM57.0432 10.5775C57.3312 8.63348 61.2192 8.70548 61.3392 10.5775H57.0432ZM59.1552 5.94548C55.9392 5.94548 52.5552 7.86548 52.5552 12.1855C52.5552 16.5055 55.7232 18.3535 59.4672 18.3535C61.5072 18.3535 63.4512 17.7055 64.8672 16.3855L62.7072 13.9615C61.9392 14.5375 60.9552 14.9215 59.6592 14.9215C58.6992 14.9215 57.3312 14.4655 57.0192 13.4095H65.2992C66.3072 8.72948 63.3552 5.94548 59.1552 5.94548Z" fill="black"/>
<path d="M81.8075 18.0895H86.5115V1.28948H81.5675L77.1515 6.97748L72.7355 1.28948H67.7675V18.0895H72.4715V8.10548L76.6715 13.1695H77.5115L81.8075 8.08148V18.0895ZM103.356 14.0815H94.5959V11.5375H102.54V7.67348H94.5959V5.27348H103.02V1.28948H89.9159V18.0895H103.356V14.0815Z" fill="#FF360A"/>
</svg>
